<?xml version="1.0" encoding="iso-8859-1"?>
<!-- Uploaded to: SVG Repo, www.svgrepo.com, Generator: SVG Repo Mixer Tools -->
<svg version="1.1" id="Layer_1" xmlns="http://www.w3.org/2000/svg" xmlns:xlink="http://www.w3.org/1999/xlink" 
	 viewBox="0 0 512 512" xml:space="preserve">
<circle style="fill:#263A7A;" cx="256" cy="256" r="256"/>
<path style="fill:#121149;" d="M149.52,395.195l116.589,116.589C402.804,506.473,512,393.999,512,256
	c0-5.073-0.164-10.109-0.455-15.108L369.778,99.125l-2.132,14.245l-35.793-35.793l-13.648,44.678l41.843,41.843l-10.311,68.848
	L194.37,77.576l-11.088,39.39l154.721,154.721l6.978-6.978l-11.921,79.601L149.52,395.195z"/>
<path style="fill:#FFC61B;" d="M352.827,398.222H159.175c-9.363,0-16.953-7.59-16.953-16.951V142.222h227.556v239.049
	C369.778,390.632,362.187,398.222,352.827,398.222z"/>
<path style="fill:#EAA22F;" d="M255.426,142.222v256h97.401c9.363,0,16.951-7.59,16.951-16.951V142.222H255.426z"/>
<rect x="142.222" y="99.125" style="fill:#D48B07;" width="227.556" height="68.956"/>
<rect x="255.431" y="99.125" style="fill:#FF5419;" width="114.347" height="68.956"/>
<g>
	<rect x="175.407" y="77.576" style="fill:#FFFFFF;" width="18.963" height="46.545"/>
	<rect x="312.889" y="77.576" style="fill:#FFFFFF;" width="18.963" height="46.545"/>
</g>
<rect x="170.667" y="190.492" style="fill:#FFEDBB;" width="170.667" height="17.239"/>
<g>
	<rect x="255.431" y="190.492" style="fill:#FEE187;" width="85.907" height="17.239"/>
	<rect x="316.957" y="241.347" style="fill:#FEE187;" width="24.376" height="29.306"/>
	<rect x="268.188" y="241.347" style="fill:#FEE187;" width="24.376" height="29.306"/>
</g>
<g>
	<rect x="219.436" y="241.347" style="fill:#FFEDBB;" width="24.376" height="29.306"/>
	<rect x="170.667" y="241.347" style="fill:#FFEDBB;" width="24.376" height="29.306"/>
</g>
<g>
	<rect x="316.957" y="287.892" style="fill:#FEE187;" width="24.376" height="29.306"/>
	<rect x="268.188" y="287.892" style="fill:#FEE187;" width="24.376" height="29.306"/>
</g>
<g>
	<rect x="219.436" y="287.892" style="fill:#FFEDBB;" width="24.376" height="29.306"/>
	<rect x="170.667" y="287.892" style="fill:#FFEDBB;" width="24.376" height="29.306"/>
</g>
<g>
	<rect x="316.957" y="334.438" style="fill:#FEE187;" width="24.376" height="29.306"/>
	<rect x="268.188" y="334.438" style="fill:#FEE187;" width="24.376" height="29.306"/>
</g>
<g>
	<rect x="219.436" y="334.438" style="fill:#FFEDBB;" width="24.376" height="29.306"/>
	<rect x="170.667" y="334.438" style="fill:#FFEDBB;" width="24.376" height="29.306"/>
</g>
</svg>