<?xml version="1.0" ?>
<!DOCTYPE svg  PUBLIC '-//W3C//DTD SVG 1.1//EN'  'http://www.w3.org/Graphics/SVG/1.1/DTD/svg11.dtd'>
<!-- Uploaded to: SVG Repo, www.svgrepo.com, Generator: SVG Repo Mixer Tools -->
<svg fill="#000000" width="800px" height="800px" viewBox="0 0 846.66 846.66" style="shape-rendering:geometricPrecision; text-rendering:geometricPrecision; image-rendering:optimizeQuality; fill-rule:evenodd; clip-rule:evenodd" version="1.1" xml:space="preserve" xmlns="http://www.w3.org/2000/svg" xmlns:xlink="http://www.w3.org/1999/xlink">
<defs>
<style type="text/css">
   <![CDATA[
    .fil0 {fill:black;fill-rule:nonzero}
   ]]>
  </style>
</defs>
<g id="Layer_x0020_1">
<path class="fil0" d="M95.07 67.56l425.4 0c11.49,0 20.81,9.32 20.81,20.81l0 49.53 69.29 0c89.05,0 161.83,72.78 161.83,161.84l0 437.75 46.22 0c27.37,0 27.37,41.61 0,41.61 -263.52,0 -527.05,0 -790.58,0 -27.37,0 -27.37,-41.61 0,-41.61l46.22 0 0 -649.12c0,-11.49 9.32,-20.81 20.81,-20.81zm499.53 281.91c-27.36,0 -27.36,-41.61 0,-41.61l82.86 0c27.36,0 27.36,41.61 0,41.61l-82.86 0zm0 208.02c-27.36,0 -27.36,-41.61 0,-41.61l82.86 0c27.36,0 27.36,41.61 0,41.61l-82.86 0zm0 -138.68c-27.36,0 -27.36,-41.61 0,-41.61l82.86 0c27.36,0 27.36,41.61 0,41.61l-82.86 0zm0 69.34c-27.36,0 -27.36,-41.61 0,-41.61l82.86 0c27.36,0 27.36,41.61 0,41.61l-82.86 0zm-390.81 -162.66l207.96 0c29.84,0 54.16,24.32 54.16,54.15 0,29.84 -24.32,54.16 -54.16,54.16l-207.96 0c-29.8,0 -54.16,-24.38 -54.16,-54.15 0,-29.73 24.43,-54.16 54.16,-54.16zm207.96 41.61l-207.96 0c-6.95,0 -12.55,5.6 -12.55,12.54 0,6.89 5.64,12.55 12.55,12.55l207.96 0c6.86,0 12.55,-5.69 12.55,-12.54 0,-6.86 -5.69,-12.55 -12.55,-12.55zm-66.17 370.39l0 -104.11 -75.62 0 0 104.11 75.62 0zm-117.23 0l0 -124.92c0,-11.49 9.31,-20.8 20.8,-20.8l117.24 0c11.49,0 20.8,9.31 20.8,20.8l0 124.92 112.48 0 0 -628.32 -383.8 0 0 628.32 112.48 0zm-24.56 -558.32l207.96 0c29.84,0 54.16,24.32 54.16,54.16 0,29.83 -24.32,54.15 -54.16,54.15l-207.96 0c-29.8,0 -54.16,-24.38 -54.16,-54.15 0,-29.73 24.43,-54.16 54.16,-54.16zm207.96 41.61l-207.96 0c-6.95,0 -12.55,5.6 -12.55,12.55 0,6.89 5.64,12.54 12.55,12.54l207.96 0c6.86,0 12.55,-5.68 12.55,-12.54 0,-6.86 -5.69,-12.55 -12.55,-12.55zm129.53 -41.27l0 557.98 189.51 0 0 -437.75c0,-66.08 -54.15,-120.23 -120.22,-120.23l-69.29 0z"/>
</g>
</svg>