<?xml version="1.0" encoding="utf-8"?>

<!DOCTYPE svg PUBLIC "-//W3C//DTD SVG 1.1//EN" "http://www.w3.org/Graphics/SVG/1.1/DTD/svg11.dtd">
<!-- Uploaded to: SVG Repo, www.svgrepo.com, Generator: SVG Repo Mixer Tools -->
<svg version="1.1" id="_x32_" xmlns="http://www.w3.org/2000/svg" xmlns:xlink="http://www.w3.org/1999/xlink" 
	 width="800px" height="800px" viewBox="0 0 512 512"  xml:space="preserve">
<style type="text/css">
<![CDATA[
	.st0{fill:#000000;}
]]>
</style>
<g>
	<path class="st0" d="M266.781,304.906c4.406,0,8.859-0.594,13.188-1.75l1.688-0.469v-18.063l-3.094,1.141
		c-3.844,1.422-7.813,2.156-11.781,2.156c-11.688,0-22.313-5.891-28.563-15.609H272.5l2.625-12.844h-41.906
		c-0.313-1.875-0.469-3.75-0.469-5.594c0-0.75,0.031-1.5,0.094-2.219h43.875l2.656-12.844h-43.047
		c5.688-11.469,17.531-18.953,30.453-18.953c4.469,0,8.875,0.906,13.125,2.703l2.594,1.094l3.453-17.031l-1.844-0.688
		c-5.578-2.031-11.391-3.078-17.328-3.078c-22.313,0-42.094,14.703-48.688,35.953h-9.688v12.844h7.406
		c-0.031,0.719-0.047,1.5-0.047,2.219c0,1.781,0.109,3.625,0.344,5.594h-7.703v12.844h10.875
		C226.875,291.875,245.766,304.906,266.781,304.906z"/>
	<path class="st0" d="M0,116v280h512v-8V116H0z M496,380H16V132h480V380z"/>
	<path class="st0" d="M80.578,357.281h350.844c4.984-20.375,21.453-36.219,42.172-40.234V194.953
		c-20.719-4.031-37.188-19.875-42.172-40.234H80.578c-4.984,20.359-21.453,36.203-42.172,40.234v122.094
		C59.125,321.063,75.594,336.906,80.578,357.281z M400.344,235.984c11.031,0,20,8.953,20,20s-8.969,20-20,20
		c-11.063,0-20-8.953-20-20S389.281,235.984,400.344,235.984z M256,171.656c46.594,0,84.344,37.766,84.344,84.328
		c0,46.594-37.75,84.359-84.344,84.359c-46.563,0-84.344-37.766-84.344-84.359C171.656,209.422,209.438,171.656,256,171.656z
		 M111.656,235.984c11.063,0,20,8.953,20,20s-8.938,20-20,20c-11.031,0-20-8.953-20-20S100.625,235.984,111.656,235.984z"/>
</g>
</svg>