<?xml version="1.0" encoding="utf-8"?>

<!DOCTYPE svg PUBLIC "-//W3C//DTD SVG 1.1//EN" "http://www.w3.org/Graphics/SVG/1.1/DTD/svg11.dtd">
<!-- Uploaded to: SVG Repo, www.svgrepo.com, Generator: SVG Repo Mixer Tools -->
<svg version="1.1" id="_x32_" xmlns="http://www.w3.org/2000/svg" xmlns:xlink="http://www.w3.org/1999/xlink" 
	 width="800px" height="800px" viewBox="0 0 512 512"  xml:space="preserve">
<style type="text/css">
<![CDATA[
	.st0{fill:#000000;}
]]>
</style>
<g>
	<path class="st0" d="M273.975,108.679c2.547,0.672,5.234,1.094,8.047,1.328l0.047,8.094l9.875-0.063l-0.063-8.266
		c1.328-0.188,2.625-0.422,3.875-0.75c2.828-0.766,5.266-1.891,7.297-3.391s3.625-3.359,4.766-5.563
		c1.172-2.188,1.719-4.734,1.703-7.656c-0.031-4.891-1.547-8.609-4.516-11.141c-2.953-2.531-7.344-4.031-13.094-4.484l-7.781-0.594
		c-2.766-0.281-4.75-0.922-5.906-1.953c-1.188-1-1.766-2.469-1.781-4.359c-0.016-2.094,0.781-3.828,2.422-5.172
		c1.609-1.313,4.156-1.984,7.594-2c2.625-0.031,5.109,0.281,7.484,0.875c2.391,0.594,5.156,2.547,5.156,2.547
		c0.625,0.313,1.391,0.188,1.875-0.328l4.609-4.75c0.359-0.359,0.516-0.875,0.422-1.375c-0.063-0.5-0.375-0.953-0.828-1.188
		c0,0-3.672-2.828-7.141-3.734c-2.047-0.547-4.25-0.906-6.547-1.109l-0.047-7l-9.875,0.078l0.047,7.141
		c-1.125,0.172-2.219,0.391-3.266,0.688c-2.516,0.75-4.719,1.875-6.594,3.328c-1.891,1.469-3.359,3.266-4.453,5.391
		c-1.063,2.141-1.594,4.547-1.578,7.234c0.031,4.891,1.469,8.531,4.344,10.922c2.844,2.375,6.906,3.813,12.172,4.266l8.859,0.719
		c2.703,0.281,4.625,0.953,5.75,2.016c1.156,1.109,1.719,2.594,1.734,4.484c0.016,2.641-1.109,4.578-3.406,5.844
		c-2.281,1.25-5.172,1.875-8.688,1.906c-2.766,0.016-5.547-0.344-8.359-1.094c-2.813-0.734-6.547-3.922-6.547-3.922
		c-0.641-0.391-1.469-0.281-2,0.234l-4.906,5.016c-0.359,0.328-0.516,0.828-0.453,1.328c0.047,0.5,0.344,0.938,0.781,1.188
		C265.006,103.413,270.1,107.647,273.975,108.679z"/>
	<path class="st0" d="M287.334,161.71c43.813-0.313,79.063-36.078,78.75-79.891c-0.297-43.813-36.078-79.094-79.891-78.766
		c-43.813,0.313-79.078,36.078-78.766,79.891C207.725,126.757,243.506,162.022,287.334,161.71z M286.334,22.882
		c32.813-0.219,59.688,26.266,59.938,59.063c0.219,32.828-26.281,59.703-59.094,59.938s-59.688-26.266-59.922-59.078
		S253.521,23.116,286.334,22.882z"/>
	<path class="st0" d="M507.412,168.288c-3.469-1.156-7.219,0.75-8.344,4.234c-2.938,8.938-6.922,14.016-11.406,17.406
		c-1.313,1-2.719,1.813-4.188,2.547c0.719-2.703,1.094-5.516,1.063-8.344c-0.031-4.484-1.047-9.078-3.547-13.172
		c-2.141-3.547-5.141-6.344-8.547-8.188c-3.422-1.859-7.25-2.813-11.125-2.797c-3.75,0.016-7.563,1-11.031,2.969
		c-0.063,0.016-0.109,0.031-0.156,0.078c-0.094,0.031-0.172,0.078-0.25,0.125h-0.031l0,0l-0.172,0.109l0,0
		c-0.016,0-0.016,0-0.031,0.016c-0.109,0.078-0.219,0.188-0.344,0.266c-0.016,0-0.016,0.016-0.031,0.016
		c-3.266,2.125-5.875,4.938-7.625,8.172c-1.859,3.406-2.828,7.234-2.797,11.125c0.016,3.984,1.109,8.031,3.297,11.656l0,0
		c2.781,4.531,6.844,8.156,11.547,10.828c0.891,0.516,1.844,0.938,2.797,1.375c-2.172,1.391-4.625,2.703-7.328,3.828
		c-3.578,1.484-7.625,2.609-12,3.234c-14.844-22.469-36.891-43.078-68.438-60.313c-5-2.734-10.141-5.125-15.344-7.234
		c-8.75,9.125-19.328,16.484-31.188,21.406c-4.656,1.969-5.141,5.906,0.281,6.547c4.844,0.563,9.625,1.25,14.422,2.031l0.172,23.844
		c-40.313-4.797-70.313-4.594-110.547,0.781l-0.172-23.828c6.813-1.234,13.688-2.234,20.578-3.031
		c6.391-0.703,6.281-5.328,0.297-8.172c-11.297-5.375-21.328-12.984-29.531-22.234c-25.172,7.078-47.516,17.203-64.016,27.672
		c-29.671-18.484-55.921-13.422-63.875-11.031l11.281,57.922c-21.516,27.016-38.953,36.141-38.953,36.141l-43.828,8.984
		c-6.203,0.031-11.984,3.203-15.359,8.406c-3.359,5.219-3.875,11.766-1.391,17.438l34.375,95.781
		c2.984,6.734,9.656,11.063,17.016,11l72.078,14.563l30.89,76.203c15.422,33.484,56.016,26.172,57.438-1.5l6.234-37.969
		l105.141-0.75c0,0,3.375,16.875,5.094,31.406c2.594,21.922,35.047,50.141,67.25,6.016c37.078-50.797,95.969-166.969,47.266-258.016
		c6.125-1.422,11.688-3.563,16.391-6.203c4.031-2.266,7.5-4.844,10.391-7.5c1.063-0.969,2.016-1.953,2.906-2.938
		c0.063-0.016,0.125-0.016,0.188-0.047l0.016,0.031c7.047-1.234,14.609-3.547,21.406-8.641c6.813-5.094,12.484-12.922,16.047-23.906
		C512.803,173.132,510.896,169.413,507.412,168.288z M470.178,190.71c-0.703,2.063-1.75,4-2.953,5.563
		c-2.281-0.328-4.766-1.188-7-2.469c-2.984-1.656-5.484-4.047-6.734-6.172v0.016c-0.953-1.563-1.391-3.219-1.391-4.891
		c-0.016-1.625,0.406-3.266,1.172-4.688c0.781-1.406,1.891-2.609,3.375-3.516c1.516-0.891,3.125-1.313,4.75-1.328
		c1.625-0.031,3.266,0.391,4.688,1.172c1.438,0.781,2.672,1.938,3.594,3.438c1,1.656,1.578,3.844,1.594,6.391
		C471.318,186.304,470.912,188.569,470.178,190.71z"/>
</g>
</svg>