<?xml version="1.0" encoding="utf-8"?>

<!-- Uploaded to: SVG Repo, www.svgrepo.com, Generator: SVG Repo Mixer Tools -->
<svg version="1.1" id="Icons" xmlns="http://www.w3.org/2000/svg" xmlns:xlink="http://www.w3.org/1999/xlink" 
	 viewBox="0 0 32 32" xml:space="preserve">
<style type="text/css">
	.st0{fill:none;stroke:#000000;stroke-width:2;stroke-linecap:round;stroke-linejoin:round;stroke-miterlimit:10;}
</style>
<path d="M32,17.1C32,17.1,32,17,32,17.1c0-0.1,0-0.1,0-0.1c0-0.1,0-0.2,0-0.3l-4-12c0,0,0,0,0,0c0,0,0-0.1-0.1-0.1
	c0-0.1-0.1-0.1-0.1-0.2c0,0-0.1-0.1-0.1-0.1c-0.1-0.1-0.1-0.1-0.2-0.1c0,0-0.1,0-0.1-0.1C27.2,4,27.1,4,27,4h-8.2
	c-0.3-0.8-1-1.5-1.8-1.8V1c0-0.6-0.4-1-1-1s-1,0.4-1,1v1.2c-0.8,0.3-1.5,1-1.8,1.8H5C4.9,4,4.8,4,4.6,4.1c0,0-0.1,0-0.1,0.1
	c-0.1,0-0.1,0.1-0.2,0.1c0,0-0.1,0.1-0.1,0.1C4.2,4.4,4.2,4.5,4.1,4.5c0,0,0,0.1-0.1,0.1c0,0,0,0,0,0l-4,12c0,0.1,0,0.2,0,0.3
	c0,0,0,0,0,0c0,0,0,0.1,0,0.1c0,0,0,0.1,0,0.1C0.1,19.8,2.3,22,5,22s4.9-2.2,5-4.8c0,0,0-0.1,0-0.1c0,0,0-0.1,0-0.1c0,0,0,0,0,0
	c0-0.1,0-0.2,0-0.3L6.4,6h6.8c0.3,0.8,1,1.5,1.8,1.8V20c-1.1,0-2,0.9-2,2v4h-2.6c-1.3,0-2.4,0.8-2.8,2.1l-0.5,1.6
	C6.9,30,7,30.3,7.2,30.6C7.4,30.8,7.7,31,8,31h16c0.3,0,0.6-0.2,0.8-0.4c0.2-0.3,0.2-0.6,0.1-0.9l-0.5-1.6C24,26.8,22.9,26,21.6,26
	H19v-4c0-1.1-0.9-2-2-2V7.8c0.8-0.3,1.5-1,1.8-1.8h6.8l-3.6,10.7c0,0.1,0,0.2,0,0.3c0,0,0,0,0,0c0,0,0,0.1,0,0.1c0,0,0,0.1,0,0.1
	c0.1,2.7,2.3,4.8,5,4.8S31.9,19.8,32,17.1C32,17.1,32,17.1,32,17.1z M2.4,16L5,8.2L7.6,16H2.4z M16,6c-0.6,0-1-0.4-1-1s0.4-1,1-1
	s1,0.4,1,1S16.6,6,16,6z M27,8.2l2.6,7.8h-5.2L27,8.2z"/>
</svg>